<?xml version="1.0" standalone="no"?>
<!DOCTYPE svg PUBLIC "-//W3C//DTD SVG 20010904//EN"
 "http://www.w3.org/TR/2001/REC-SVG-20010904/DTD/svg10.dtd">
<svg version="1.0" xmlns="http://www.w3.org/2000/svg"
 width="512.000000pt" height="512.000000pt" viewBox="0 0 512.000000 512.000000"
 preserveAspectRatio="xMidYMid meet">
<metadata>
Created by potrace 1.14, written by Peter Selinger 2001-2017
</metadata>
<g transform="translate(0.000000,512.000000) scale(0.100000,-0.100000)"
fill="#000000" stroke="none">
<path d="M1663 4455 c-143 -20 -328 -66 -418 -104 -11 -5 -36 -15 -55 -22 -59
-21 -209 -98 -292 -150 -194 -120 -382 -294 -526 -488 -46 -63 -172 -263 -172
-275 0 -2 -15 -37 -34 -78 -69 -148 -131 -371 -153 -548 -9 -76 -10 -385 -1
-450 11 -78 28 -178 33 -192 2 -7 7 -24 9 -38 38 -200 174 -490 324 -690 314
-417 763 -681 1282 -754 87 -12 246 -14 935 -12 457 1 844 5 860 9 17 4 79 17
139 28 479 89 944 406 1218 829 127 196 247 492 273 675 3 22 8 46 10 53 19
55 27 407 12 536 -9 80 -44 258 -59 296 -5 14 -11 32 -13 40 -22 104 -146 365
-240 504 -265 393 -662 673 -1114 786 -230 58 -235 58 -1116 58 -590 -1 -835
-4 -902 -13z"/>
</g>
</svg>
