<svg width="37" id="svg__ic-lock" height="37" viewBox="0 0 37 37" fill="none" xmlns="http://www.w3.org/2000/svg">
<path fill-rule="evenodd" clip-rule="evenodd" d="M18.5 2C13.5294 2 9.5 6.02944 9.5 11V12.0309C7.52684 12.277 6 13.9602 6 16V28C6 30.2091 7.79086 32 10 32H27C29.2091 32 31 30.2091 31 28V16C31 13.9602 29.4732 12.277 27.5 12.0309V11C27.5 6.02944 23.4706 2 18.5 2ZM24.5 12V11C24.5 7.68629 21.8137 5 18.5 5C15.1863 5 12.5 7.68629 12.5 11V12H24.5ZM18.5 19.5C19.8807 19.5 21 20.6193 21 22V25C21 26.3807 19.8807 27.5 18.5 27.5C17.1193 27.5 16 26.3807 16 25V22C16 20.6193 17.1193 19.5 18.5 19.5Z" fill="white"/>
</svg>
